# xmcd
#
# Track frame offsets: 
#        150
#        16715
#        29508
#        39366
#        52397
#        70328
#        89008
#        108175
#        126595
#        138222
#        152371
#        166013
#        183897
#        208048
#        223947
#        238870
#        258233
#        271771
#        286161
#        314208
#        328655
#        343969
#
# Disc length: 4785 seconds
#
# Revision: 0
# Processed by: cddbd v1.5.2PL0 Copyright (c) Steve Scherf et al.
# Submitted via: ExactAudioCopy v0.95a3
#
DISCID=4d12af16
DTITLE=Jimmy Buckley - The Grand Tour - Live
DYEAR=2008
DGENRE=Country
TTITLE0=Son of Hickory Hollers Tramp
TTITLE1=Reuban James
TTITLE2=Daydreams About Night Things
TTITLE3=Behind Closed Doors
TTITLE4=You Gave Me a Mountain
TTITLE5=Your Wedding Day
TTITLE6=Elvis Medley, She's Not You, Good Luck Charm, Return To Sender
TTITLE7=Love Me
TTITLE8=Full Time Fool
TTITLE9=Viva Las Vegas
TTITLE10=The Most Beautiful Girl In The World
TTITLE11=A Little Bit More
TTITLE12=How Great Thou Art
TTITLE13=14 Carat Mind
TTITLE14=The Grand Tour
TTITLE15=Yesterday's Gone
TTITLE16=Daddy Danced
TTITLE17=Green Green Grass Of Home
TTITLE18=Joe Dolan Medley
TTITLE19=Thank God I'm a Country Boy
TTITLE20=Johnny Cash Medley
TTITLE21=The Grand Tour, with George Jones
EXTD=
EXTT0=
EXTT1=
EXTT2=
EXTT3=
EXTT4=
EXTT5=
EXTT6=
EXTT7=
EXTT8=
EXTT9=
EXTT10=
EXTT11=
EXTT12=
EXTT13=
EXTT14=
EXTT15=
EXTT16=
EXTT17=
EXTT18=
EXTT19=
EXTT20=
EXTT21=
PLAYORDER=
